<?xml version="1.0" encoding="UTF-8"?>
<!DOCTYPE svg PUBLIC "-//W3C//DTD SVG 1.1//EN" "http://www.w3.org/Graphics/SVG/1.1/DTD/svg11.dtd">
<!-- Creator: CorelDRAW 2020 (64-Bit) -->
<svg xmlns="http://www.w3.org/2000/svg" xml:space="preserve" width="160px" height="35px" version="1.1" style="shape-rendering:geometricPrecision; text-rendering:geometricPrecision; image-rendering:optimizeQuality; fill-rule:evenodd; clip-rule:evenodd"
viewBox="0 0 18.945 4.178"
 xmlns:xlink="http://www.w3.org/1999/xlink"
 xmlns:xodm="http://www.corel.com/coreldraw/odm/2003">
 <defs>
  <style type="text/css">
   <![CDATA[
    .fil1 {fill:white}
    .fil0 {fill:white;fill-rule:nonzero}
   ]]>
  </style>
 </defs>
 <g id="Слой_x0020_1">
  <metadata id="CorelCorpID_0Corel-Layer"/>
  <g id="_1637712256016">
   <path class="fil0" d="M0.539 1.164l0 -0.111c0,-0.143 0.028,-0.279 0.083,-0.407 0.11,-0.257 0.3,-0.45 0.556,-0.562 0.128,-0.056 0.264,-0.084 0.409,-0.084 0.101,0 0.187,0.035 0.254,0.103 0.068,0.068 0.103,0.153 0.103,0.254 0,0.096 -0.035,0.183 -0.104,0.249 -0.032,0.03 -0.07,0.054 -0.113,0.072 -0.043,0.018 -0.09,0.028 -0.139,0.028l-0.016 0c-0.048,0 -0.091,0.013 -0.131,0.034 -0.123,0.063 -0.196,0.187 -0.196,0.324l0 0.1 0.238 0c0.046,0.001 0.089,0.011 0.129,0.028 0.043,0.018 0.082,0.043 0.113,0.075 0.032,0.032 0.057,0.069 0.075,0.111 0.019,0.043 0.027,0.089 0.027,0.139 0,0.051 -0.008,0.098 -0.027,0.142 -0.018,0.043 -0.043,0.081 -0.075,0.113 -0.031,0.031 -0.07,0.056 -0.113,0.075 -0.044,0.018 -0.09,0.028 -0.14,0.028l-0.227 0 0 0.391 0 0 0 1.556c0,0.094 -0.037,0.186 -0.104,0.252 -0.066,0.066 -0.153,0.104 -0.247,0.104 -0.094,0 -0.185,-0.038 -0.252,-0.104 -0.067,-0.066 -0.103,-0.158 -0.103,-0.252l0.003 -1.541 0 0 0 -0.098 0 0 0 -0.055 0 0 0 -0.121 0 0 0 -0.131 -0.017 0 0 -0.001 -0.169 0c-0.048,0 -0.094,-0.01 -0.137,-0.028 -0.044,-0.019 -0.082,-0.044 -0.115,-0.076 -0.032,-0.034 -0.057,-0.072 -0.076,-0.116 -0.018,-0.043 -0.028,-0.089 -0.028,-0.138 0,-0.05 0.01,-0.096 0.028,-0.139 0.019,-0.042 0.044,-0.079 0.076,-0.111 0.033,-0.032 0.071,-0.057 0.115,-0.075 0.04,-0.017 0.082,-0.027 0.126,-0.028l0.194 0z"/>
   <path class="fil1" d="M3.679 1.164c0.036,-0.001 0.258,-0.001 0.363,0.028 0.154,0.031 0.274,0.164 0.281,0.33 0.008,0.193 -0.14,0.357 -0.332,0.366 -0.015,0 -0.029,0 -0.043,-0.001 0,0.002 -0.209,-0.02 -0.238,-0.019 -0.443,0.02 -0.786,0.394 -0.767,0.837 0.02,0.443 0.394,0.787 0.837,0.767 0.442,-0.019 0.786,-0.394 0.766,-0.837 -0.001,-0.03 -0.031,-0.214 -0.094,-0.347 -0.021,-0.049 -0.042,-0.101 -0.045,-0.156 -0.018,-0.271 0.195,-0.383 0.333,-0.385 0.139,-0.001 0.238,0.069 0.305,0.161 0.188,0.296 0.203,0.663 0.205,0.697 0.046,0.84 -0.608,1.535 -1.44,1.572 -0.831,0.036 -1.534,-0.609 -1.571,-1.441 -0.036,-0.832 0.609,-1.536 1.44,-1.572z"/>
   <path class="fil0" d="M12.109 2.653c0,0.211 -0.04,0.41 -0.12,0.594 -0.16,0.367 -0.442,0.652 -0.807,0.812 -0.184,0.08 -0.378,0.119 -0.586,0.119 -0.209,0 -0.406,-0.039 -0.59,-0.119 -0.365,-0.159 -0.646,-0.443 -0.802,-0.812 -0.078,-0.184 -0.117,-0.383 -0.117,-0.594 0,-0.208 0.039,-0.405 0.117,-0.591 0.062,-0.147 0.143,-0.28 0.24,-0.397l0 0c0.224,-0.271 0.555,-0.466 0.865,-0.501 0.197,-0.023 0.393,-0.026 0.584,0.04 0.099,0.034 0.162,0.081 0.214,0.167 0.047,0.076 0.047,0.17 0.023,0.268 -0.012,0.049 -0.032,0.092 -0.06,0.129 -0.055,0.075 -0.129,0.117 -0.216,0.13 -0.048,0.007 -0.09,0.003 -0.136,-0.011 -0.108,-0.032 -0.272,-0.03 -0.38,-0.008 -0.123,0.025 -0.191,0.08 -0.283,0.152 -0.092,0.082 -0.165,0.184 -0.214,0.303 -0.043,0.1 -0.064,0.207 -0.064,0.319 0,0.116 0.021,0.223 0.064,0.323 0.084,0.203 0.235,0.353 0.435,0.44 0.099,0.044 0.207,0.065 0.32,0.065 0.112,0 0.218,-0.021 0.318,-0.065 0.2,-0.087 0.353,-0.237 0.44,-0.44 0.039,-0.091 0.06,-0.188 0.064,-0.292l0.001 0 0 -0.724 0 0 0 -0.667 -0.001 0 0 -0.845c0,-0.051 0.009,-0.098 0.025,-0.142 0.032,-0.088 0.089,-0.151 0.174,-0.19 0.042,-0.019 0.088,-0.029 0.138,-0.029 0.05,0 0.095,0.01 0.137,0.029 0.087,0.039 0.15,0.103 0.188,0.19 0.019,0.044 0.029,0.091 0.029,0.142l0 2.205z"/>
   <path class="fil1" d="M7.104 1.164c0.035,-0.001 0.257,-0.001 0.363,0.028 0.154,0.031 0.273,0.164 0.28,0.33 0.009,0.193 -0.14,0.357 -0.332,0.366 -0.014,0 -0.028,0 -0.042,-0.001 0,0.002 -0.21,-0.02 -0.239,-0.019 -0.442,0.02 -0.786,0.394 -0.766,0.837 0.019,0.443 0.393,0.787 0.836,0.767 0.443,-0.019 0.786,-0.394 0.767,-0.837 -0.002,-0.03 -0.032,-0.214 -0.095,-0.347 -0.021,-0.049 -0.041,-0.101 -0.045,-0.156 -0.017,-0.271 0.195,-0.383 0.334,-0.385 0.138,-0.001 0.237,0.069 0.304,0.161 0.188,0.296 0.204,0.663 0.206,0.697 0.045,0.84 -0.609,1.535 -1.44,1.572 -0.832,0.036 -1.535,-0.609 -1.571,-1.441 -0.036,-0.832 0.608,-1.536 1.44,-1.572z"/>
   <path class="fil1" d="M13.804 1.178c0.817,-0.122 1.578,0.436 1.711,1.248 0.008,0.027 0.012,0.055 0.012,0.085 0,0.167 -0.139,0.304 -0.31,0.304l-1.413 0c-0.17,0 -0.31,-0.137 -0.31,-0.304 0,-0.168 0.14,-0.305 0.31,-0.305l0.879 0c-0.169,-0.239 -0.465,-0.377 -0.775,-0.331 -0.438,0.066 -0.741,0.474 -0.675,0.912 0.065,0.439 0.474,0.741 0.912,0.675 0.031,-0.004 0.21,-0.054 0.336,-0.13 0.046,-0.026 0.096,-0.052 0.151,-0.061 0.267,-0.046 0.401,0.154 0.417,0.291 0.016,0.138 -0.043,0.244 -0.128,0.32 -0.275,0.217 -0.638,0.272 -0.671,0.277 -0.832,0.133 -1.591,-0.444 -1.714,-1.267 -0.123,-0.823 0.444,-1.59 1.268,-1.714z"/>
   <path class="fil1" d="M17.222 1.178c0.817,-0.122 1.578,0.436 1.711,1.248 0.007,0.027 0.012,0.055 0.012,0.085 0,0.167 -0.14,0.304 -0.31,0.304l-1.413 0c-0.171,0 -0.31,-0.137 -0.31,-0.304 0,-0.168 0.139,-0.305 0.31,-0.305l0.879 0c-0.169,-0.239 -0.465,-0.377 -0.775,-0.331 -0.439,0.066 -0.741,0.474 -0.675,0.912 0.065,0.439 0.474,0.741 0.912,0.675 0.031,-0.004 0.21,-0.054 0.336,-0.13 0.046,-0.026 0.096,-0.052 0.151,-0.061 0.267,-0.046 0.401,0.154 0.417,0.291 0.016,0.138 -0.044,0.244 -0.128,0.32 -0.275,0.217 -0.638,0.272 -0.672,0.277 -0.831,0.133 -1.59,-0.444 -1.714,-1.267 -0.123,-0.823 0.445,-1.59 1.269,-1.714z"/>
  </g>
 </g>
</svg>
